<svg width="16" height="16" viewBox="0 0 16 16" fill="none" xmlns="http://www.w3.org/2000/svg">
<path d="M13.5 7V4" stroke="#000" stroke-linecap="round" stroke-linejoin="round"/>
<path d="m15 5.5h-3" stroke="#000" stroke-linecap="round" stroke-linejoin="round"/>
<path d="m10.5 1.5v2" stroke="#000" stroke-linecap="round" stroke-linejoin="round"/>
<path d="m11.5 2.5h-2" stroke="#000" stroke-linecap="round" stroke-linejoin="round"/>
<path d="m13.544 9.5375c-0.9817 0.27528-2.0189 0.2843-3.0052 0.02614-0.98635-0.25816-1.8862-0.7742-2.6071-1.4951s-1.237-1.6207-1.4951-2.607c-0.25816-0.9863-0.24913-2.0236 0.02614-3.0052-0.96783 0.26938-1.8482 0.78764-2.5534 1.5031-0.70521 0.71551-1.2106 1.6033-1.466 2.5749s-0.25162 1.9932 0.01074 2.963c0.26236 0.96978 0.77422 1.8539 1.4846 2.5643 0.71037 0.7103 1.5945 1.2222 2.5642 1.4846 0.96976 0.2623 1.9913 0.266 2.963 0.0107 0.9716-0.2553 1.8594-0.7608 2.5749-1.466s1.2338-1.5855 1.5032-2.5534z" stroke="#000" stroke-linecap="round" stroke-linejoin="round"/>
</svg>
